<svg width="623" height="703" viewBox="0 0 623 703" fill="none" xmlns="http://www.w3.org/2000/svg">
<path d="M10.224 427.952H33.552V505.712H75.312V524H10.224V427.952ZM123.651 526.16C112.995 526.16 104.595 523.664 98.451 518.672C92.403 513.68 89.379 506.192 89.379 496.208V451.136H110.835V494.48C110.835 499.088 111.843 502.544 113.859 504.848C115.971 507.056 119.283 508.16 123.795 508.16C128.307 508.16 131.571 507.056 133.587 504.848C135.699 502.544 136.755 499.088 136.755 494.48V451.136H156.915V496.208C156.915 506.288 153.987 513.824 148.131 518.816C142.371 523.712 134.211 526.16 123.651 526.16ZM221.223 487.136L247.575 524H222.231L206.823 502.4L191.991 524H169.383L196.743 488.288L170.103 451.136H195.447L210.999 472.88L225.975 451.136H248.727L221.223 487.136ZM261.363 424.64H283.539V441.2H261.363V424.64ZM261.795 452.144H283.251L283.395 524H261.795V452.144ZM302.566 457.328C306.311 455.312 312.023 453.44 319.703 451.712C327.383 449.984 334.247 449.12 340.295 449.12C350.567 449.12 358.295 451.136 363.479 455.168C368.663 459.2 371.255 465.824 371.255 475.04V524H349.799V479.36C349.799 471.008 345.095 466.832 335.687 466.832C333.575 466.832 331.415 467.072 329.207 467.552C326.999 468.032 325.271 468.608 324.023 469.28V524H302.566V457.328ZM395.789 467.552H385.133V451.136H395.933V449.408C396.029 438.464 398.525 430.88 403.421 426.656C408.413 422.336 415.181 420.176 423.725 420.176C425.261 420.176 426.941 420.32 428.765 420.608C430.589 420.896 432.077 421.232 433.229 421.616V440.48C432.173 439.424 431.117 438.656 430.061 438.176C429.005 437.6 427.661 437.312 426.029 437.312C423.341 437.312 421.229 438.032 419.693 439.472C418.157 440.912 417.389 443.36 417.389 446.816V451.136H433.229V467.552H417.245V524H395.789V467.552ZM446.189 424.64H468.365V441.2H446.189V424.64ZM446.621 452.144H468.077L468.221 524H446.621V452.144ZM517.156 526.88C508.804 526.88 502.516 524.912 498.292 520.976C494.164 517.04 492.1 511.376 492.1 503.984V467.552H481.444V451.136H492.1V431.12H514.564V451.136H530.548V467.552H514.564V501.248C514.564 503.744 515.092 505.616 516.148 506.864C517.204 508.016 518.98 508.592 521.476 508.592C523.012 508.592 524.596 508.352 526.228 507.872C527.86 507.296 529.3 506.528 530.548 505.568V523.856C526.9 525.872 522.436 526.88 517.156 526.88ZM619.264 451.136L590.608 525.152C583.6 543.2 574.288 552.224 562.672 552.224C557.68 552.224 553.36 551.36 549.712 549.632V532.208C552.592 533.264 555.424 533.792 558.208 533.792C561.088 533.792 563.488 532.976 565.408 531.344C567.424 529.712 569.008 527.024 570.16 523.28L540.928 451.136H565.408L580.816 498.944L596.224 451.136H619.264Z" fill="white"/>
<path d="M3 671H418C426.837 671 434 678.163 434 687V703H3V671Z" fill="white"/>
<path fill-rule="evenodd" clip-rule="evenodd" d="M300 150C300 232.843 232.843 300 150 300C67.1573 300 0 232.843 0 150C0 67.1573 67.1573 0 150 0C232.843 0 300 67.1573 300 150ZM257.551 215.676C235.41 251.857 195.525 276 150 276C80.4121 276 24 219.588 24 150C24 80.4121 80.4121 24 150 24C195.525 24 235.41 48.1433 257.551 84.3244C248.535 80.2611 238.532 78 228 78C188.236 78 156 110.235 156 150C156 189.764 188.236 222 228 222C238.532 222 248.535 219.739 257.551 215.676ZM276 150C276 176.51 254.51 198 228 198C201.49 198 180 176.51 180 150C180 123.49 201.49 102 228 102C254.51 102 276 123.49 276 150Z" fill="white"/>
</svg>
